# xmcd
#
# Track frame offsets:
#	150
#	12440
#	36972
#	64487
#	87412
#	112865
#	131737
#	154720
#	178587
#	202140
#	226940
#	261767
#
# Disc length: 3632 seconds
#
# Revision: 1
# Processed by: cddbd v1.5.1PL0 Copyright (c) Steve Scherf et al.
# Submitted via: CDex 1.50Beta5
#
DISCID=a50e2e0c
DTITLE=渡辺直由 - Initialize
DYEAR=1996
DGENRE=
TTITLE0=Signature
TTITLE1=Friend
TTITLE2=Love Remains
TTITLE3=見つめていたい
TTITLE4=黄昏に…
TTITLE5=汚れなき太陽の下で
TTITLE6=いま あの風になれ
TTITLE7=たとえば時間が戻るなら
TTITLE8=WITH YOU
TTITLE9=生命の声で
TTITLE10=小さな手を守りたい
TTITLE11=Signature
EXTD=
EXTT0=
EXTT1=
EXTT2=
EXTT3=
EXTT4=
EXTT5=
EXTT6=
EXTT7=
EXTT8=
EXTT9=
EXTT10=
EXTT11=
PLAYORDER=
